<?xml version="1.0" encoding="utf-8"?>
<svg viewBox="0 0 1005.3 1509.7" width="1005.3" height="1509.7" xmlns="http://www.w3.org/2000/svg">
  <path id="path18" style="fill:#ec1d27;fill-opacity:1;fill-rule:nonzero;stroke:none" d="M 823.067 579.667 C 823.067 579.667 893.96 564.24 953.08 526.267 C 1006.093 492.214 1008.8 383.08 1003.387 332.787 C 980.947 431.067 840.867 482.92 840.867 482.92 C 840.867 482.92 967.587 395.707 990.227 274.734 C 1002.613 208.574 983.267 118.414 874.147 0 C 985.587 192.707 852.08 378.44 653.573 478.28 C 675.44 503.68 678.587 548.934 658.867 588.214 C 638.92 627.947 582.054 629.934 560.974 590.8 C 555.547 580.747 552.16 568.814 550.654 555.667 C 545.614 511.947 552.974 475.187 599.6 462.027 C 573.48 438.227 560.134 435.907 516.014 455.067 C 471.907 474.214 443.467 510.787 386.582 523.547 C 391.804 538.64 409.798 545.614 438.04 541.734 C 456.094 554.227 462.454 599.067 416.956 615.854 C 389.046 626.147 358.276 612.934 345.43 586.107 C 326.871 547.334 330.284 503.227 351.755 478.28 C 153.248 378.44 19.748 192.707 131.191 0 C 22.07 118.414 2.723 208.574 15.106 274.734 C 37.742 395.707 164.47 482.92 164.47 482.92 C 164.47 482.92 24.391 431.067 1.948 332.787 C -3.469 383.08 -0.76 492.214 52.252 526.267 C 111.378 564.24 182.27 579.667 182.27 579.667 C 182.27 579.667 126.354 585.854 36.582 563.027 C 47.416 594.747 106.939 656.814 156.73 669.427 C 214.774 684.134 272.816 683.36 272.816 683.36 C 272.816 683.36 224.64 702.32 144.542 702.32 C 170.66 728.254 224.06 756.88 276.299 767.334 C 277.014 767.48 277.747 767.614 278.498 767.76 C 320.263 775.574 358.547 793.2 390.695 818.254 C 415.354 837.467 425.096 870.24 415.508 899.987 L 355.715 1085.56 C 340.719 1132.094 344.243 1182.627 365.555 1226.64 L 444.974 1046.814 L 411.408 1321.307 L 502.667 1509.707 L 593.92 1321.307 L 560.36 1046.814 L 639.773 1226.64 C 661.093 1182.627 664.613 1132.094 649.613 1085.56 L 589.813 899.947 C 580.227 870.2 589.96 837.454 614.587 818.227 C 646.693 793.187 684.933 775.574 726.68 767.787 C 727.48 767.64 728.267 767.48 729.04 767.334 C 781.28 756.88 834.667 728.254 860.787 702.32 C 780.693 702.32 732.52 683.36 732.52 683.36 C 732.52 683.36 790.56 684.134 848.6 669.427 C 898.4 656.814 957.92 594.747 968.747 563.027 C 878.973 585.854 823.067 579.667 823.067 579.667"/>
</svg>