<svg viewBox="-251.325 0 1509.7 1509.7" width="1509.7" height="1509.7" xmlns="http://www.w3.org/2000/svg"><path style="fill:#ec1d27;fill-opacity:1;fill-rule:nonzero;stroke:none" d="M823.067 579.667s70.893-15.427 130.013-53.4c53.013-34.053 55.72-143.187 50.307-193.48-22.44 98.28-162.52 150.133-162.52 150.133s126.72-87.213 149.36-208.186c12.386-66.16-6.96-156.32-116.08-274.734 111.44 192.707-22.067 378.44-220.574 478.28 21.867 25.4 25.014 70.654 5.294 109.934-19.947 39.733-76.813 41.72-97.893 2.586-5.427-10.053-8.814-21.986-10.32-35.133-5.04-43.72 2.32-80.48 48.946-93.64-26.12-23.8-39.466-26.12-83.586-6.96-44.107 19.147-72.547 55.72-129.432 68.48 5.222 15.093 23.216 22.067 51.458 18.187 18.054 12.493 24.414 57.333-21.084 74.12-27.91 10.293-58.68-2.92-71.526-29.747-18.559-38.773-15.146-82.88 6.325-107.827C153.248 378.44 19.748 192.707 131.191 0 22.07 118.414 2.723 208.574 15.106 274.734 37.742 395.707 164.47 482.92 164.47 482.92S24.391 431.067 1.948 332.787C-3.469 383.08-.76 492.214 52.252 526.267c59.126 37.973 130.018 53.4 130.018 53.4s-55.916 6.187-145.688-16.64c10.834 31.72 70.357 93.787 120.148 106.4 58.044 14.707 116.086 13.933 116.086 13.933s-48.176 18.96-128.274 18.96c26.118 25.934 79.518 54.56 131.757 65.014.715.146 1.448.28 2.199.426 41.765 7.814 80.049 25.44 112.197 50.494 24.659 19.213 34.401 51.986 24.813 81.733l-59.793 185.573a190.001 190.001 0 0 0 9.84 141.08l79.419-179.826-33.566 274.493 91.259 188.4 91.253-188.4-33.56-274.493 79.413 179.826a189.943 189.943 0 0 0 9.84-141.08l-59.8-185.613c-9.586-29.747.147-62.493 24.774-81.72 32.106-25.04 70.346-42.653 112.093-50.44.8-.147 1.587-.307 2.36-.453 52.24-10.454 105.627-39.08 131.747-65.014-80.094 0-128.267-18.96-128.267-18.96s58.04.774 116.08-13.933c49.8-12.613 109.32-74.68 120.147-106.4-89.774 22.827-145.68 16.64-145.68 16.64"/></svg>