<?xml version="1.0" standalone="no"?>
<!DOCTYPE svg PUBLIC "-//W3C//DTD SVG 20010904//EN"
 "http://www.w3.org/TR/2001/REC-SVG-20010904/DTD/svg10.dtd">
<svg version="1.0" xmlns="http://www.w3.org/2000/svg"
 width="1510.000000pt" height="1510.000000pt" viewBox="0 0 1510.000000 1510.000000"
 preserveAspectRatio="xMidYMid meet">
<metadata>
Created by potrace 1.14, written by Peter Selinger 2001-2017
</metadata>
<g transform="translate(0.000000,1510.000000) scale(0.100000,-0.100000)"
fill="#000000" stroke="none">
<path d="M3812 15064 c3 -3 -8 -20 -25 -37 -40 -40 -104 -113 -148 -168 -19
-23 -49 -56 -66 -75 -18 -19 -31 -34 -28 -34 3 0 -4 -10 -14 -22 -49 -57 -58
-67 -81 -98 -14 -18 -29 -38 -35 -44 -5 -6 -26 -34 -44 -61 -19 -28 -37 -52
-41 -55 -3 -3 -19 -25 -35 -50 -17 -25 -36 -51 -42 -58 -7 -7 -13 -17 -13 -22
0 -5 -6 -15 -13 -22 -20 -20 -164 -252 -205 -331 -77 -144 -91 -172 -91 -184
-1 -7 -5 -13 -11 -13 -5 0 -10 -5 -10 -11 0 -5 -9 -30 -20 -55 -23 -49 -43
-96 -44 -104 -1 -3 -4 -10 -8 -15 -3 -6 -16 -39 -28 -75 -12 -36 -26 -70 -32
-77 -5 -7 -7 -17 -3 -23 3 -5 1 -10 -5 -10 -6 0 -8 -5 -5 -10 4 -6 1 -17 -5
-25 -7 -8 -9 -15 -5 -15 4 0 1 -7 -6 -17 -8 -9 -13 -19 -12 -22 1 -3 0 -15 -3
-27 -3 -11 -7 -29 -9 -40 -2 -10 -4 -20 -5 -21 -4 -5 -15 -54 -25 -108 -2 -11
-4 -21 -5 -22 -2 -2 -3 -11 -5 -20 -1 -10 -5 -35 -9 -56 -5 -21 -9 -55 -10
-75 -1 -20 -4 -42 -7 -47 -13 -21 -6 -382 8 -475 8 -52 15 -107 16 -122 1 -16
5 -28 8 -28 3 0 6 -6 7 -12 0 -7 4 -26 8 -43 3 -16 7 -37 8 -45 1 -9 4 -20 7
-25 3 -6 12 -32 19 -60 7 -27 16 -54 20 -60 4 -5 10 -23 14 -40 4 -16 14 -43
21 -60 8 -16 26 -59 40 -95 41 -99 58 -134 69 -142 6 -4 7 -8 3 -8 -5 0 1 -12
12 -26 12 -15 21 -31 21 -37 0 -10 127 -228 139 -237 3 -3 12 -17 20 -32 8
-15 22 -37 33 -47 10 -11 18 -24 18 -29 0 -4 8 -17 18 -28 10 -10 29 -35 42
-54 13 -19 29 -40 35 -46 5 -6 21 -25 35 -44 14 -18 35 -44 48 -57 12 -13 22
-26 22 -29 0 -5 50 -62 98 -111 12 -13 22 -28 22 -34 0 -6 5 -7 10 -4 6 3 10
2 10 -4 0 -18 286 -297 413 -404 28 -23 61 -52 74 -64 13 -13 28 -23 33 -23 4
0 10 -4 12 -8 2 -4 31 -29 66 -55 34 -27 62 -50 62 -52 0 -4 -44 14 -160 68
-25 11 -47 21 -50 22 -3 0 -23 10 -45 22 -22 12 -69 37 -105 55 -118 62 -234
130 -238 140 -2 4 -8 8 -14 8 -6 0 -26 11 -45 26 -18 14 -33 21 -33 17 0 -4
-4 -3 -8 3 -4 6 -29 25 -57 44 -66 44 -129 93 -133 103 -2 4 -8 7 -14 7 -5 0
-15 6 -22 13 -8 6 -37 32 -67 57 -116 97 -295 287 -367 389 -17 25 -39 55 -47
66 -8 11 -13 22 -12 25 0 3 -8 15 -18 28 -11 12 -20 26 -20 30 -1 4 -11 23
-23 42 -25 40 -96 219 -107 268 -4 17 -10 32 -13 32 -11 0 -16 -119 -17 -375
0 -287 7 -379 50 -650 3 -16 12 -59 20 -95 9 -36 17 -74 19 -85 2 -11 14 -51
27 -90 13 -38 24 -72 24 -75 1 -3 5 -13 9 -22 4 -9 9 -22 10 -30 1 -7 10 -27
19 -45 9 -18 17 -39 17 -47 0 -8 3 -16 8 -18 4 -1 22 -33 41 -70 19 -38 38
-68 43 -68 4 0 8 -5 8 -11 0 -22 105 -140 167 -189 41 -32 83 -60 89 -60 4 0
22 -11 39 -25 18 -13 35 -21 39 -18 3 4 6 2 6 -3 0 -5 73 -47 163 -91 188 -95
237 -118 367 -168 52 -20 104 -41 115 -46 23 -11 227 -77 335 -110 81 -24 82
-25 122 -32 15 -3 35 -11 45 -17 28 -17 -508 -4 -612 15 -11 2 -20 4 -20 5 0
0 -29 3 -65 5 -36 3 -76 7 -90 10 -14 3 -68 12 -120 20 -52 9 -129 23 -170 31
-41 9 -85 18 -97 20 -48 9 -71 14 -152 34 -46 11 -86 18 -89 16 -9 -10 69
-152 131 -238 141 -197 394 -449 561 -559 25 -17 46 -35 46 -40 0 -5 4 -9 10
-9 5 0 40 -19 77 -43 56 -36 214 -120 233 -124 3 -1 19 -7 35 -13 17 -7 41
-14 54 -16 14 -3 29 -8 35 -11 6 -4 19 -8 31 -9 11 -1 58 -11 105 -22 47 -11
102 -23 124 -26 21 -4 41 -8 45 -10 3 -2 29 -6 56 -10 28 -3 59 -8 70 -10 11
-2 45 -7 76 -10 31 -4 65 -8 75 -10 11 -2 55 -7 99 -11 44 -3 98 -8 120 -11
22 -2 110 -6 195 -9 85 -3 156 -8 158 -9 6 -6 -130 -46 -138 -41 -5 3 -10 1
-12 -5 -1 -5 -16 -11 -33 -14 -16 -2 -37 -6 -45 -9 -13 -6 -72 -18 -195 -42
-39 -8 -84 -15 -115 -20 -14 -2 -41 -6 -60 -9 -19 -3 -57 -8 -85 -11 -27 -2
-72 -7 -100 -11 -27 -3 -75 -8 -105 -9 -30 -2 -55 -4 -55 -5 0 -1 -188 -8
-275 -9 l-45 -1 30 -28 c71 -64 157 -132 214 -167 9 -5 18 -13 21 -16 11 -12
195 -119 267 -155 43 -22 80 -42 81 -46 2 -5 8 -8 13 -8 5 0 28 -9 52 -19 38
-17 181 -77 232 -96 11 -5 25 -9 30 -10 6 0 17 -4 25 -8 60 -25 322 -95 420
-111 90 -14 110 -20 110 -29 0 -6 3 -8 6 -4 3 3 26 0 50 -8 24 -7 44 -12 44
-10 0 4 198 -66 260 -91 111 -47 352 -172 358 -186 2 -5 8 -8 13 -8 10 0 160
-98 169 -110 3 -4 12 -11 22 -16 54 -30 218 -202 218 -229 0 -4 8 -19 18 -33
18 -26 63 -147 78 -207 4 -16 8 -77 9 -134 3 -107 -8 -175 -46 -288 -11 -35
-22 -71 -24 -80 -2 -10 -13 -45 -25 -77 -12 -33 -22 -68 -23 -78 -1 -10 -4
-18 -8 -18 -4 0 -10 -17 -14 -37 -11 -51 -11 -50 -33 -110 -11 -29 -19 -53
-16 -53 2 0 -5 -20 -16 -45 -11 -25 -20 -47 -20 -50 0 -3 -1 -7 -1 -10 -1 -3
-2 -8 -3 -12 -1 -5 -13 -42 -26 -83 -13 -41 -24 -78 -25 -82 0 -3 -3 -10 -7
-14 -5 -4 -8 -17 -8 -29 0 -12 -3 -25 -7 -29 -5 -4 -8 -11 -8 -14 -1 -7 -92
-295 -102 -322 -3 -8 -7 -19 -9 -25 -1 -5 -9 -29 -18 -53 -8 -23 -16 -46 -17
-50 -2 -9 2 5 -69 -217 -34 -104 -63 -197 -65 -205 -2 -8 -9 -28 -15 -45 -6
-16 -13 -37 -16 -45 -2 -8 -17 -63 -33 -121 -16 -58 -31 -123 -35 -145 -3 -21
-8 -52 -11 -69 -15 -72 -27 -390 -16 -410 3 -5 6 -28 7 -50 6 -86 12 -133 19
-144 4 -7 5 -15 2 -18 -3 -3 -2 -15 3 -28 5 -13 12 -43 15 -66 4 -24 10 -46
13 -49 4 -3 8 -12 9 -20 5 -43 78 -249 93 -264 6 -6 10 -18 10 -28 0 -27 15
-22 29 10 8 15 17 34 22 42 5 8 12 22 15 30 3 8 13 31 21 50 9 19 17 40 19 45
1 6 12 33 25 60 13 28 22 53 21 57 -1 5 2 8 8 8 5 0 10 5 10 12 0 6 9 30 19
52 44 93 71 157 77 181 3 14 10 25 15 25 5 0 8 3 7 7 -1 5 5 24 14 43 9 19 32
73 52 119 20 47 45 101 54 120 9 20 17 38 17 41 1 3 10 25 22 50 11 25 31 68
43 95 12 28 28 64 35 80 38 83 58 130 60 135 0 3 9 20 18 37 10 18 18 35 18
38 0 2 7 22 16 42 9 21 17 40 18 43 3 9 36 82 67 150 48 102 71 154 72 162 3
19 13 15 11 -4 -1 -13 -3 -23 -5 -23 -1 0 -3 -18 -4 -40 -2 -22 -7 -65 -11
-95 -4 -30 -8 -65 -8 -77 -1 -13 -3 -23 -6 -23 -4 0 -6 -17 -7 -38 -1 -38 -10
-128 -18 -172 -2 -14 -7 -52 -11 -85 -14 -141 -17 -161 -21 -185 -3 -14 -7
-46 -9 -72 -2 -26 -7 -59 -10 -75 -3 -15 -8 -62 -11 -103 -3 -41 -8 -78 -10
-82 -2 -3 -7 -30 -10 -60 -3 -29 -7 -64 -9 -78 -1 -14 -6 -52 -9 -85 -4 -33
-9 -71 -11 -84 -2 -14 -7 -52 -11 -85 -3 -34 -8 -74 -10 -91 -3 -16 -7 -48 -9
-70 -2 -22 -6 -58 -9 -80 -4 -22 -8 -60 -11 -85 -3 -25 -10 -81 -16 -125 -6
-44 -12 -102 -14 -130 -2 -27 -5 -50 -5 -50 -3 0 -8 -31 -14 -90 -3 -33 -8
-71 -10 -85 -3 -14 -7 -52 -11 -85 -3 -33 -8 -69 -10 -80 -3 -11 -7 -45 -10
-75 -2 -30 -7 -75 -10 -100 -13 -96 -13 -110 -4 -110 5 0 8 -3 7 -7 -2 -5 39
-93 90 -198 52 -104 94 -194 95 -200 1 -5 4 -12 7 -15 10 -10 60 -116 60 -128
0 -6 4 -12 9 -12 7 0 14 -13 25 -50 1 -3 6 -12 11 -20 5 -8 10 -21 12 -29 1
-8 8 -18 15 -22 7 -5 9 -9 4 -9 -5 0 -3 -6 3 -13 6 -8 8 -17 4 -20 -3 -4 2 -9
11 -13 9 -3 16 -12 16 -20 0 -8 11 -35 25 -62 13 -26 60 -121 103 -212 115
-238 243 -503 325 -670 39 -80 70 -149 69 -153 -1 -5 2 -7 8 -5 14 4 30 33 76
133 19 44 39 82 42 85 4 3 8 10 9 15 1 6 43 96 94 200 51 105 93 192 94 195 0
3 24 51 52 108 29 56 49 102 45 102 -4 0 -2 4 3 8 12 8 39 64 37 75 -1 4 3 7
8 7 6 0 10 9 10 20 0 11 5 20 10 20 6 0 10 6 10 13 0 15 33 81 50 102 7 8 10
15 6 15 -3 0 10 30 29 67 19 37 35 73 35 80 0 7 4 13 9 13 5 0 12 14 16 30 4
17 11 30 16 30 5 0 9 5 9 11 0 10 60 137 160 341 27 53 46 99 43 102 -4 3 -1
6 5 6 15 0 52 104 46 132 -2 13 -7 46 -10 73 -3 28 -7 64 -9 80 -3 17 -7 53
-10 80 -3 28 -8 64 -10 80 -3 17 -7 57 -11 90 -3 33 -11 63 -17 67 -9 6 -8 8
1 8 7 0 11 4 8 8 -3 5 -8 35 -11 68 -3 32 -8 70 -10 84 -2 14 -6 50 -9 80 -4
30 -9 66 -11 80 -2 14 -6 50 -10 80 -3 30 -10 87 -15 125 -5 39 -12 93 -15
120 -3 28 -7 66 -10 85 -2 19 -7 58 -10 85 -3 28 -7 61 -10 75 -4 23 -12 93
-21 175 -4 37 -11 97 -19 150 -3 22 -7 63 -10 90 -2 28 -4 50 -5 50 -3 0 -8
33 -14 101 -4 39 -9 82 -12 95 -3 13 -7 47 -9 74 -2 28 -4 50 -5 50 -1 0 -3
16 -5 35 -4 34 -10 83 -20 164 -3 21 -7 61 -10 90 -2 28 -6 62 -9 76 -2 14 -7
45 -10 70 -4 25 -8 59 -11 75 -4 21 -2 25 4 15 5 -8 10 -19 11 -25 1 -5 11
-22 22 -37 11 -16 17 -28 14 -28 -2 0 13 -39 35 -88 52 -114 48 -105 120 -267
34 -77 69 -156 77 -175 9 -19 16 -37 17 -40 1 -3 10 -23 20 -45 10 -22 19 -42
20 -45 0 -3 6 -15 13 -27 7 -13 9 -23 5 -23 -4 0 -3 -4 2 -8 6 -4 25 -43 44
-87 19 -44 46 -107 61 -140 15 -33 34 -76 43 -95 15 -35 47 -107 72 -165 8
-16 57 -127 109 -245 52 -118 99 -216 103 -217 8 -3 53 103 52 121 0 5 3 12 8
15 7 5 28 63 50 136 12 44 44 177 48 205 3 19 8 46 10 60 24 141 24 437 0 550
-3 14 -6 37 -7 53 -1 15 -6 27 -11 27 -4 0 -6 4 -3 9 7 10 -17 123 -41 191 -8
25 -16 50 -17 55 -8 35 -89 283 -98 299 -5 10 -12 29 -14 41 -2 13 -29 99 -60
191 -30 93 -57 176 -59 184 -2 8 -20 65 -40 125 -20 61 -39 121 -42 135 -2 13
-9 30 -15 37 -6 7 -7 13 -3 13 4 0 2 7 -5 15 -7 8 -10 15 -7 15 3 0 -7 36 -23
81 -16 44 -29 84 -28 87 1 7 -4 22 -22 67 -12 30 -32 99 -32 110 0 6 -3 15 -7
20 -9 11 -25 66 -23 78 1 4 -2 7 -6 7 -5 0 -9 6 -9 13 0 13 -44 157 -79 257
-12 36 -25 79 -29 95 -4 17 -9 39 -12 50 -3 11 -7 69 -8 128 -5 160 37 301
128 437 35 52 150 170 166 170 6 0 11 5 11 10 0 6 7 10 15 10 8 0 15 4 15 8 0
10 175 127 225 152 17 8 32 18 35 21 19 23 420 202 478 212 9 2 51 14 92 26
41 13 83 25 95 27 19 4 39 8 88 19 12 3 38 8 57 11 19 3 38 8 41 10 7 4 59 13
94 17 11 1 22 4 25 7 4 5 35 14 115 36 33 9 39 11 55 17 8 3 44 16 80 28 36
12 70 26 77 31 7 5 17 7 23 3 5 -3 10 -1 10 4 0 6 3 10 8 9 4 -1 21 5 37 12
17 7 33 13 38 12 4 -1 7 2 7 7 0 5 15 13 33 16 17 4 39 13 47 20 8 7 26 16 39
20 26 8 241 127 283 156 14 11 31 19 37 19 6 0 11 4 11 8 0 4 15 16 33 26 34
20 147 110 206 163 l36 33 -60 1 c-125 1 -381 16 -435 24 -19 3 -60 8 -90 10
-30 3 -66 8 -80 12 -14 3 -38 7 -55 9 -16 1 -48 5 -70 9 -22 4 -48 8 -57 9
-10 1 -20 5 -24 8 -3 4 -12 4 -20 1 -8 -3 -14 -1 -14 3 0 5 -16 10 -36 11 -20
1 -44 5 -53 9 -9 4 -23 9 -31 10 -49 8 -177 44 -215 60 -28 12 -25 13 50 15
162 3 333 15 485 34 19 2 53 6 75 9 35 4 108 15 210 32 51 8 217 44 280 60 33
8 67 17 75 18 8 2 37 13 63 25 27 11 54 21 62 21 7 0 18 7 25 15 7 8 18 15 24
15 7 0 33 13 58 29 25 16 49 27 52 24 3 -4 6 -1 6 5 0 7 4 12 10 12 9 0 90 52
116 75 6 6 22 17 34 25 22 14 42 31 141 110 51 42 279 265 279 275 0 3 10 16
23 28 21 20 142 181 175 232 26 41 74 146 69 151 -3 3 -25 0 -48 -6 -24 -7
-55 -14 -69 -16 -14 -3 -32 -7 -40 -10 -8 -3 -26 -8 -40 -10 -20 -4 -97 -19
-145 -30 -26 -5 -134 -24 -170 -29 -22 -4 -48 -8 -57 -11 -9 -3 -42 -7 -73 -9
-31 -3 -59 -7 -64 -9 -4 -3 -41 -8 -82 -11 -41 -4 -90 -9 -109 -11 -68 -9
-520 -15 -520 -7 0 4 48 21 108 37 180 48 354 104 437 141 41 18 79 29 88 27
4 -1 7 2 7 8 0 5 4 10 9 10 5 0 22 5 38 12 15 6 30 12 33 13 16 5 68 29 163
73 59 28 110 51 114 51 3 -1 9 3 12 8 3 4 22 16 41 27 93 49 165 90 170 96 3
3 25 18 50 32 47 28 153 125 182 168 10 14 31 44 48 68 39 55 112 208 140 292
23 67 29 87 30 95 0 3 7 23 15 45 8 22 14 42 15 45 0 3 0 6 1 8 0 1 2 9 4 17
1 8 10 53 20 100 9 47 18 94 20 105 3 27 16 114 21 145 23 147 26 712 4 830
-1 3 -12 -33 -26 -80 -14 -46 -29 -89 -34 -95 -4 -5 -9 -13 -9 -18 0 -4 -9
-28 -21 -53 -11 -26 -20 -50 -20 -54 0 -5 -4 -10 -8 -12 -8 -3 -66 -99 -66
-108 0 -3 -4 -10 -10 -16 -6 -6 -18 -22 -26 -34 -13 -20 -42 -58 -109 -144
-22 -28 -220 -226 -256 -256 -96 -79 -139 -114 -222 -173 -51 -37 -97 -67
-103 -67 -5 0 -10 -4 -10 -10 0 -5 -7 -10 -15 -10 -8 0 -15 -3 -15 -8 0 -4
-20 -18 -45 -32 -25 -14 -45 -28 -45 -33 0 -4 -4 -6 -9 -3 -5 3 -19 -2 -32
-12 -49 -35 -367 -198 -468 -239 -51 -21 -53 -21 -36 -3 10 11 24 20 32 20 7
0 13 4 13 8 0 4 21 24 48 44 26 20 57 46 69 57 12 12 24 21 27 21 3 0 16 10
29 23 57 54 149 137 153 137 7 0 282 281 331 337 23 26 52 59 63 73 12 14 34
41 49 60 14 19 29 37 33 40 4 3 32 39 63 80 30 41 58 80 62 85 56 73 157 235
218 350 73 136 75 139 75 153 0 6 5 12 11 12 5 0 8 4 4 9 -3 5 2 16 10 25 9 8
15 17 14 18 -2 2 3 19 11 38 7 19 14 37 15 40 1 3 5 13 8 23 9 24 16 46 17 52
0 3 6 18 15 35 8 16 15 38 15 50 0 11 4 20 9 20 5 0 8 8 7 18 -2 9 0 26 5 37
16 42 22 61 25 75 4 19 16 80 20 100 37 171 45 449 19 635 -3 17 -7 48 -10 70
-7 48 -13 80 -15 80 -3 0 -9 39 -12 68 -1 15 -7 27 -12 27 -5 0 -7 3 -4 6 4 3
2 20 -4 37 -5 18 -10 37 -12 42 -1 6 -5 19 -9 30 -3 11 -8 31 -11 45 -9 46
-85 244 -132 345 -15 33 -27 63 -26 68 1 4 -2 7 -8 7 -6 0 -9 3 -8 8 3 10 -75
162 -131 254 -9 14 -31 52 -50 85 -35 59 -210 324 -221 333 -3 3 -17 21 -30
40 -13 19 -29 40 -35 46 -5 6 -17 22 -25 34 -15 23 -93 121 -158 199 -21 24
-46 55 -57 69 -11 14 -41 48 -66 76 -26 28 -62 70 -80 93 -19 23 -37 42 -41
42 -7 1 21 -60 31 -69 9 -8 91 -178 91 -190 0 -5 5 -10 12 -10 6 0 9 -3 5 -6
-3 -3 7 -33 22 -67 96 -217 175 -504 207 -751 2 -21 7 -42 9 -47 3 -4 1 -10
-5 -14 -6 -4 -7 -12 -3 -18 5 -7 9 -30 10 -52 5 -67 4 -348 -1 -380 -2 -16 -7
-64 -11 -105 -4 -41 -9 -78 -11 -81 -2 -4 -6 -31 -10 -60 -4 -30 -9 -56 -13
-59 -4 -3 -7 -12 -7 -20 0 -25 -16 -104 -22 -115 -4 -5 -8 -19 -9 -30 -2 -11
-15 -58 -30 -105 -15 -47 -28 -87 -28 -90 -8 -29 -89 -227 -99 -239 -6 -8 -10
-17 -9 -20 0 -3 -8 -26 -20 -51 -11 -25 -20 -48 -19 -52 1 -5 -2 -8 -6 -8 -4
0 -19 -25 -32 -55 -13 -30 -27 -55 -30 -55 -4 0 -12 -16 -20 -35 -8 -19 -17
-35 -22 -35 -4 0 -7 -3 -6 -7 3 -9 -39 -81 -59 -101 -7 -7 -13 -20 -13 -28 0
-8 -4 -14 -10 -14 -5 0 -10 -4 -10 -10 0 -16 -232 -333 -279 -381 -9 -9 -35
-38 -58 -65 -136 -160 -317 -339 -519 -514 -16 -14 -63 -52 -104 -85 -41 -33
-77 -62 -80 -65 -15 -16 -211 -159 -310 -226 -205 -139 -475 -300 -657 -393
-45 -23 -85 -46 -88 -51 -3 -6 7 -27 24 -47 49 -63 114 -216 127 -301 3 -21 8
-48 11 -62 8 -40 10 -252 2 -285 -4 -16 -10 -50 -13 -75 -10 -93 -87 -305
-133 -367 -13 -18 -21 -33 -18 -33 4 0 -1 -7 -9 -15 -9 -9 -19 -21 -23 -28
-18 -28 -123 -108 -179 -135 -32 -16 -90 -37 -128 -45 -96 -22 -257 -13 -293
16 -7 5 -13 6 -13 3 0 -4 -32 10 -70 30 -71 37 -190 144 -190 170 0 8 -4 14
-9 14 -7 0 -62 108 -67 133 -1 4 -3 9 -4 12 -1 3 -3 8 -5 13 -1 4 -5 14 -8 22
-7 16 -16 56 -24 105 -2 17 -7 37 -10 45 -8 19 -10 51 -16 176 -2 56 -7 106
-10 111 -4 6 -3 13 1 17 4 4 8 29 9 54 4 79 10 140 16 149 4 6 9 25 12 44 3
18 11 36 16 40 6 3 10 9 10 13 -3 23 4 40 40 101 75 123 173 201 342 268 l59
24 -42 34 c-23 19 -53 44 -67 55 -35 30 -99 63 -161 84 -56 19 -212 24 -212 7
0 -4 -4 -6 -9 -3 -7 4 -72 -12 -156 -38 -10 -3 -24 -8 -125 -49 -55 -22 -228
-106 -265 -130 -10 -6 -80 -52 -155 -102 -74 -49 -146 -96 -160 -103 -13 -7
-33 -22 -43 -33 -10 -10 -24 -19 -32 -19 -8 0 -15 -4 -15 -9 0 -5 -13 -14 -30
-21 -16 -7 -30 -16 -30 -20 0 -4 -8 -10 -17 -13 -19 -6 -75 -38 -83 -48 -3 -3
-18 -12 -35 -21 -16 -8 -50 -26 -75 -39 -25 -13 -76 -37 -115 -53 -38 -15 -79
-32 -90 -36 -22 -10 -86 -30 -157 -51 -53 -15 -56 -21 -30 -61 72 -110 243
-163 445 -138 44 6 50 4 80 -27 32 -32 75 -106 82 -141 2 -9 4 -18 5 -19 2 -2
3 -11 4 -20 1 -10 4 -22 7 -28 7 -12 3 -109 -5 -149 -4 -16 -8 -34 -9 -40 -4
-19 -58 -118 -72 -133 -8 -8 -18 -20 -22 -26 -18 -28 -112 -97 -174 -126 -96
-45 -188 -64 -284 -58 -98 7 -140 18 -233 65 -79 39 -200 148 -223 202 -8 16
-17 30 -21 30 -5 0 -7 3 -6 8 1 4 -10 32 -24 62 -22 47 -40 93 -43 110 0 3 -6
21 -13 40 -6 19 -14 49 -17 65 -2 17 -7 41 -11 55 -24 104 -24 315 0 430 3 14
15 53 26 85 12 33 22 66 22 73 1 6 5 12 10 12 5 0 6 5 3 10 -3 6 -2 10 2 10 5
0 14 12 20 28 17 40 46 84 66 102 17 14 15 17 -45 49 -134 71 -211 114 -296
163 -48 28 -96 56 -107 62 -61 35 -249 158 -256 169 -3 5 -10 9 -15 9 -14 1
-296 203 -340 243 -6 6 -23 19 -38 30 -15 11 -38 29 -50 40 -12 11 -47 40 -76
65 -86 72 -153 130 -187 164 -17 17 -74 73 -126 124 -52 50 -93 92 -92 92 2 0
-20 24 -48 54 -29 30 -68 73 -87 96 -19 23 -42 49 -51 58 -12 14 -103 129
-131 167 -4 6 -19 24 -33 41 -14 18 -25 36 -25 42 0 6 -4 12 -8 14 -9 3 -132
183 -132 192 0 3 -12 22 -26 43 -14 21 -33 54 -42 73 -9 19 -19 37 -22 40 -9
7 -110 217 -145 300 -33 79 -93 241 -100 272 -2 13 -12 48 -21 78 -21 73 -34
125 -44 180 -4 25 -10 54 -13 65 -4 19 -9 49 -23 150 -3 22 -7 73 -8 113 -2
40 -6 75 -9 78 -4 4 -2 15 4 25 5 11 6 19 1 19 -12 0 -10 53 3 62 6 5 6 8 -1
8 -12 0 -11 60 0 79 4 6 3 11 -3 11 -6 0 -8 6 -6 13 3 6 7 41 10 77 8 117 14
164 30 255 37 208 109 451 188 628 14 31 23 57 19 57 -4 0 -1 4 6 9 7 4 14 15
16 23 1 8 10 27 19 41 10 15 14 27 11 27 -4 0 1 9 12 21 10 12 17 22 14 23 -3
0 11 28 30 61 44 76 44 75 29 75 -7 0 -10 -3 -7 -6z"/>
</g>
</svg>
